<?xml version="1.0" encoding="utf-8"?>
<!-- Generator: Adobe Illustrator 23.0.1, SVG Export Plug-In . SVG Version: 6.00 Build 0)  -->
<svg version="1.1" id="Layer_1" xmlns="http://www.w3.org/2000/svg" xmlns:xlink="http://www.w3.org/1999/xlink" x="0px" y="0px"
	 viewBox="0 0 600 600" style="enable-background:new 0 0 600 600;" xml:space="preserve">
<style type="text/css">
	.st0{fill:#B3B2B3;}
	.st1{fill:#E4E4E3;}
	.st2{fill:#999999;}
	.st3{fill:#CCCCCC;}
	.st4{fill:#FFFFFF;}
	.st5{fill:#FF9900;}
	.st6{fill:#CC6600;}
</style>
<path class="st0" d="M495.28,24.83L388.15,0.88l-0.23-0.68H227.74V0L115.59,24.16v0.32l112.56,574.73l-0.13-200.58l174.88,60.53
	l48.56,128.89l27.22-253.55l-7.44-15.46l9.96-31.5L495.28,24.83z M381.55,105.43l-148.24-0.88L126.94,37.93l105.61-20.62h150.53
	l105.46,21.13L381.55,105.43z"/>
<polygon class="st1" points="495.63,24.95 384.79,95.58 236.38,95.58 116.15,25.27 115.24,259.04 143.24,331.38 154.61,379.52 
	137.79,464.45 194.22,567.46 228.72,600 213.08,508.84 227.11,475.48 266.28,415.29 339.63,424.15 397.94,418.2 417.39,425.99 
	451.79,588.16 481.16,505.65 495.63,369.59 495.63,369.4 471.68,319.15 495.63,242.86 "/>
<g>
	
		<rect x="246.75" y="110.11" transform="matrix(0.9188 0.3948 -0.3948 0.9188 134.7712 -74.0636)" class="st2" width="1.22" height="360.7"/>
	<path class="st3" d="M318,124.54c-0.18-0.08-0.36-0.17-0.55-0.25c-6.47-2.78-12.86-2.39-14.27,0.88s2.71,8.17,9.18,10.96
		c0.19,0.08,0.38,0.15,0.56,0.23L318,124.54z"/>
	<path class="st2" d="M310.99,143.93c0.18,0.08,0.36,0.17,0.55,0.25c6.47,2.78,12.86,2.39,14.27-0.88s-2.71-8.17-9.18-10.96
		c-0.19-0.08-0.38-0.15-0.56-0.23L310.99,143.93z"/>
	<path class="st3" d="M312.91,136.37c-0.18-0.08-0.36-0.17-0.55-0.25c-6.47-2.78-12.86-2.39-14.27,0.88s2.71,8.17,9.18,10.96
		c0.19,0.08,0.38,0.15,0.56,0.23L312.91,136.37z"/>
	<path class="st2" d="M318,124.49c-0.16-0.07-0.31-0.15-0.47-0.21c-5.46-2.34-10.79-2.13-11.91,0.48c-1.12,2.61,2.39,6.63,7.85,8.97
		c0.16,0.07,0.32,0.13,0.48,0.19L318,124.49z"/>
	<path class="st3" d="M310.45,143.74c0.16,0.07,0.31,0.15,0.47,0.21c5.46,2.34,10.81,2.08,11.96-0.59c1.15-2.67-2.34-6.74-7.8-9.08
		c-0.16-0.07-0.32-0.13-0.48-0.19L310.45,143.74z"/>
	<path class="st2" d="M305.9,155.76c0.18,0.08,0.36,0.17,0.55,0.25c6.47,2.78,12.86,2.39,14.27-0.88s-2.71-8.17-9.18-10.96
		c-0.19-0.08-0.38-0.15-0.56-0.23L305.9,155.76z"/>
	<path class="st3" d="M307.83,148.21c-0.18-0.08-0.36-0.17-0.55-0.25c-6.47-2.78-12.86-2.39-14.27,0.88s2.71,8.17,9.18,10.96
		c0.19,0.08,0.38,0.15,0.56,0.23L307.83,148.21z"/>
	<path class="st2" d="M300.82,167.6c0.18,0.08,0.36,0.17,0.55,0.25c6.47,2.78,12.86,2.39,14.27-0.88s-2.71-8.17-9.18-10.96
		c-0.19-0.08-0.38-0.15-0.56-0.23L300.82,167.6z"/>
	<path class="st3" d="M302.74,160.05c-0.18-0.08-0.36-0.17-0.55-0.25c-6.47-2.78-12.86-2.39-14.27,0.88
		c-1.4,3.27,2.71,8.17,9.18,10.96c0.19,0.08,0.38,0.15,0.56,0.23L302.74,160.05z"/>
	<path class="st2" d="M295.73,179.43c0.18,0.08,0.36,0.17,0.55,0.25c6.47,2.78,12.86,2.39,14.27-0.88s-2.71-8.17-9.18-10.96
		c-0.19-0.08-0.38-0.15-0.56-0.23L295.73,179.43z"/>
	<path class="st3" d="M297.66,171.88c-0.18-0.08-0.36-0.17-0.55-0.25c-6.47-2.78-12.86-2.39-14.27,0.88s2.71,8.17,9.18,10.96
		c0.19,0.08,0.38,0.15,0.56,0.23L297.66,171.88z"/>
	<path class="st2" d="M290.65,191.27c0.18,0.08,0.36,0.17,0.55,0.25c6.47,2.78,12.86,2.39,14.27-0.88s-2.71-8.17-9.18-10.96
		c-0.19-0.08-0.38-0.15-0.56-0.23L290.65,191.27z"/>
	<path class="st3" d="M292.57,183.72c-0.18-0.08-0.36-0.17-0.55-0.25c-6.47-2.78-12.86-2.39-14.27,0.88s2.71,8.17,9.18,10.96
		c0.19,0.08,0.38,0.15,0.56,0.23L292.57,183.72z"/>
	<path class="st2" d="M285.56,203.1c0.18,0.08,0.36,0.17,0.55,0.25c6.47,2.78,12.86,2.39,14.27-0.88c1.4-3.27-2.71-8.17-9.18-10.96
		c-0.19-0.08-0.38-0.15-0.56-0.23L285.56,203.1z"/>
	<path class="st3" d="M287.48,195.55c-0.18-0.08-0.36-0.17-0.55-0.25c-6.47-2.78-12.86-2.39-14.27,0.88s2.71,8.17,9.18,10.96
		c0.19,0.08,0.38,0.15,0.56,0.23L287.48,195.55z"/>
	<path class="st2" d="M280.47,214.94c0.18,0.08,0.36,0.17,0.55,0.25c6.47,2.78,12.86,2.39,14.27-0.88s-2.71-8.17-9.18-10.96
		c-0.19-0.08-0.38-0.15-0.56-0.23L280.47,214.94z"/>
	<path class="st3" d="M282.4,207.39c-0.18-0.08-0.36-0.17-0.55-0.25c-6.47-2.78-12.86-2.39-14.27,0.88s2.71,8.17,9.18,10.96
		c0.19,0.08,0.38,0.15,0.56,0.23L282.4,207.39z"/>
	<path class="st2" d="M275.39,226.78c0.18,0.08,0.36,0.17,0.55,0.25c6.47,2.78,12.86,2.39,14.27-0.88s-2.71-8.17-9.18-10.96
		c-0.19-0.08-0.38-0.15-0.56-0.23L275.39,226.78z"/>
	<path class="st3" d="M277.31,219.22c-0.18-0.08-0.36-0.17-0.55-0.25c-6.47-2.78-12.86-2.39-14.27,0.88s2.71,8.17,9.18,10.96
		c0.19,0.08,0.38,0.15,0.56,0.23L277.31,219.22z"/>
	<path class="st2" d="M270.3,238.61c0.18,0.08,0.36,0.17,0.55,0.25c6.47,2.78,12.86,2.39,14.27-0.88s-2.71-8.17-9.18-10.96
		c-0.19-0.08-0.38-0.15-0.56-0.23L270.3,238.61z"/>
	<path class="st3" d="M272.23,231.06c-0.18-0.08-0.36-0.17-0.55-0.25c-6.47-2.78-12.86-2.39-14.27,0.88
		c-1.4,3.27,2.71,8.17,9.18,10.96c0.19,0.08,0.38,0.15,0.56,0.23L272.23,231.06z"/>
	<path class="st2" d="M265.22,250.45c0.18,0.08,0.36,0.17,0.55,0.25c6.47,2.78,12.86,2.39,14.27-0.88s-2.71-8.17-9.18-10.96
		c-0.19-0.08-0.38-0.15-0.56-0.23L265.22,250.45z"/>
	<path class="st3" d="M267.14,242.89c-0.18-0.08-0.36-0.17-0.55-0.25c-6.47-2.78-12.86-2.39-14.27,0.88
		c-1.4,3.27,2.71,8.17,9.18,10.96c0.19,0.08,0.38,0.15,0.56,0.23L267.14,242.89z"/>
	<path class="st2" d="M260.13,262.28c0.18,0.08,0.36,0.17,0.55,0.25c6.47,2.78,12.86,2.39,14.27-0.88c1.4-3.27-2.71-8.17-9.18-10.96
		c-0.19-0.08-0.38-0.15-0.56-0.23L260.13,262.28z"/>
	<path class="st3" d="M262.05,254.73c-0.18-0.08-0.36-0.17-0.55-0.25c-6.47-2.78-12.86-2.39-14.27,0.88s2.71,8.17,9.18,10.96
		c0.19,0.08,0.38,0.15,0.56,0.23L262.05,254.73z"/>
	<path class="st2" d="M255.05,274.12c0.18,0.08,0.36,0.17,0.55,0.25c6.47,2.78,12.86,2.39,14.27-0.88c1.4-3.27-2.71-8.17-9.18-10.96
		c-0.19-0.08-0.38-0.15-0.56-0.23L255.05,274.12z"/>
	<path class="st3" d="M256.97,266.57c-0.18-0.08-0.36-0.17-0.55-0.25c-6.47-2.78-12.86-2.39-14.27,0.88
		c-1.4,3.27,2.71,8.17,9.18,10.96c0.19,0.08,0.38,0.15,0.56,0.23L256.97,266.57z"/>
	<path class="st2" d="M249.96,285.95c0.18,0.08,0.36,0.17,0.55,0.25c6.47,2.78,12.86,2.39,14.27-0.88c1.4-3.27-2.71-8.17-9.18-10.96
		c-0.19-0.08-0.38-0.15-0.56-0.23L249.96,285.95z"/>
	<path class="st3" d="M251.88,278.4c-0.18-0.08-0.36-0.17-0.55-0.25c-6.47-2.78-12.86-2.39-14.27,0.88
		c-1.4,3.27,2.71,8.17,9.18,10.96c0.19,0.08,0.38,0.15,0.56,0.23L251.88,278.4z"/>
	<path class="st2" d="M244.87,297.79c0.18,0.08,0.36,0.17,0.55,0.25c6.47,2.78,12.86,2.39,14.27-0.88c1.4-3.27-2.71-8.17-9.18-10.96
		c-0.19-0.08-0.38-0.15-0.56-0.23L244.87,297.79z"/>
	<path class="st3" d="M246.8,290.24c-0.18-0.08-0.36-0.17-0.55-0.25c-6.47-2.78-12.86-2.39-14.27,0.88
		c-1.4,3.27,2.71,8.17,9.18,10.96c0.19,0.08,0.38,0.15,0.56,0.23L246.8,290.24z"/>
	<path class="st2" d="M239.79,309.63c0.18,0.08,0.36,0.17,0.55,0.25c6.47,2.78,12.86,2.39,14.27-0.88c1.4-3.27-2.71-8.17-9.18-10.96
		c-0.19-0.08-0.38-0.15-0.56-0.23L239.79,309.63z"/>
	<path class="st3" d="M241.71,302.07c-0.18-0.08-0.36-0.17-0.55-0.25c-6.47-2.78-12.86-2.39-14.27,0.88
		c-1.4,3.27,2.71,8.17,9.18,10.96c0.19,0.08,0.38,0.15,0.56,0.23L241.71,302.07z"/>
	<path class="st2" d="M234.7,321.46c0.18,0.08,0.36,0.17,0.55,0.25c6.47,2.78,12.86,2.39,14.27-0.88c1.4-3.27-2.71-8.17-9.18-10.96
		c-0.19-0.08-0.38-0.15-0.56-0.23L234.7,321.46z"/>
	<path class="st3" d="M236.62,313.91c-0.18-0.08-0.36-0.17-0.55-0.25c-6.47-2.78-12.86-2.39-14.27,0.88
		c-1.4,3.27,2.71,8.17,9.18,10.96c0.19,0.08,0.38,0.15,0.56,0.23L236.62,313.91z"/>
	<path class="st2" d="M229.62,333.3c0.18,0.08,0.36,0.17,0.55,0.25c6.47,2.78,12.86,2.39,14.27-0.88c1.4-3.27-2.71-8.17-9.18-10.96
		c-0.19-0.08-0.38-0.15-0.56-0.23L229.62,333.3z"/>
	<path class="st3" d="M231.54,325.74c-0.18-0.08-0.36-0.17-0.55-0.25c-6.47-2.78-12.86-2.39-14.27,0.88s2.71,8.17,9.18,10.96
		c0.19,0.08,0.38,0.15,0.56,0.23L231.54,325.74z"/>
	<path class="st2" d="M224.53,345.13c0.18,0.08,0.36,0.17,0.55,0.25c6.47,2.78,12.86,2.39,14.27-0.88c1.4-3.27-2.71-8.17-9.18-10.96
		c-0.19-0.08-0.38-0.15-0.56-0.23L224.53,345.13z"/>
	<path class="st3" d="M226.45,337.58c-0.18-0.08-0.36-0.17-0.55-0.25c-6.47-2.78-12.86-2.39-14.27,0.88
		c-1.4,3.27,2.71,8.17,9.18,10.96c0.19,0.08,0.38,0.15,0.56,0.23L226.45,337.58z"/>
	<path class="st2" d="M219.44,356.97c0.18,0.08,0.36,0.17,0.55,0.25c6.47,2.78,12.86,2.39,14.27-0.88c1.4-3.27-2.71-8.17-9.18-10.96
		c-0.19-0.08-0.38-0.15-0.56-0.23L219.44,356.97z"/>
	<path class="st3" d="M221.37,349.41c-0.18-0.08-0.36-0.17-0.55-0.25c-6.47-2.78-12.86-2.39-14.27,0.88
		c-1.4,3.27,2.71,8.17,9.18,10.96c0.19,0.08,0.38,0.15,0.56,0.23L221.37,349.41z"/>
	<path class="st2" d="M214.36,368.8c0.18,0.08,0.36,0.17,0.55,0.25c6.47,2.78,12.86,2.39,14.27-0.88s-2.71-8.17-9.18-10.96
		c-0.19-0.08-0.38-0.15-0.56-0.23L214.36,368.8z"/>
	<path class="st3" d="M216.28,361.25c-0.18-0.08-0.36-0.17-0.55-0.25c-6.47-2.78-12.86-2.39-14.27,0.88
		c-1.4,3.27,2.71,8.17,9.18,10.96c0.19,0.08,0.38,0.15,0.56,0.23L216.28,361.25z"/>
	<path class="st2" d="M209.27,380.64c0.18,0.08,0.36,0.17,0.55,0.25c6.47,2.78,12.86,2.39,14.27-0.88c1.4-3.27-2.71-8.17-9.18-10.96
		c-0.19-0.08-0.38-0.15-0.56-0.23L209.27,380.64z"/>
	<path class="st3" d="M211.19,373.09c-0.18-0.08-0.36-0.17-0.55-0.25c-6.47-2.78-12.86-2.39-14.27,0.88
		c-1.4,3.27,2.71,8.17,9.18,10.96c0.19,0.08,0.38,0.15,0.56,0.23L211.19,373.09z"/>
	<path class="st2" d="M204.19,392.47c0.18,0.08,0.36,0.17,0.55,0.25c6.47,2.78,12.86,2.39,14.27-0.88c1.4-3.27-2.71-8.17-9.18-10.96
		c-0.19-0.08-0.38-0.15-0.56-0.23L204.19,392.47z"/>
	<path class="st3" d="M206.11,384.92c-0.18-0.08-0.36-0.17-0.55-0.25c-6.47-2.78-12.86-2.39-14.27,0.88
		c-1.4,3.27,2.71,8.17,9.18,10.96c0.19,0.08,0.38,0.15,0.56,0.23L206.11,384.92z"/>
	<path class="st2" d="M199.1,404.31c0.18,0.08,0.36,0.17,0.55,0.25c6.47,2.78,12.86,2.39,14.27-0.88c1.4-3.27-2.71-8.17-9.18-10.96
		c-0.19-0.08-0.38-0.15-0.56-0.23L199.1,404.31z"/>
	<path class="st3" d="M201.02,396.76c-0.18-0.08-0.36-0.17-0.55-0.25c-6.47-2.78-12.86-2.39-14.27,0.88
		c-1.4,3.27,2.71,8.17,9.18,10.96c0.19,0.08,0.38,0.15,0.56,0.23L201.02,396.76z"/>
	<path class="st2" d="M194.01,416.15c0.18,0.08,0.36,0.17,0.55,0.25c6.47,2.78,12.86,2.39,14.27-0.88c1.4-3.27-2.71-8.17-9.18-10.96
		c-0.19-0.08-0.38-0.15-0.56-0.23L194.01,416.15z"/>
	<path class="st3" d="M195.94,408.59c-0.18-0.08-0.36-0.17-0.55-0.25c-6.47-2.78-12.86-2.39-14.27,0.88
		c-1.4,3.27,2.71,8.17,9.18,10.96c0.19,0.08,0.38,0.15,0.56,0.23L195.94,408.59z"/>
	<path class="st2" d="M188.93,427.98c0.18,0.08,0.36,0.17,0.55,0.25c6.47,2.78,12.86,2.39,14.27-0.88c1.4-3.27-2.71-8.17-9.18-10.96
		c-0.19-0.08-0.38-0.15-0.56-0.23L188.93,427.98z"/>
	<path class="st3" d="M190.85,420.43c-0.18-0.08-0.36-0.17-0.55-0.25c-6.47-2.78-12.86-2.39-14.27,0.88
		c-1.4,3.27,2.71,8.17,9.18,10.96c0.19,0.08,0.38,0.15,0.56,0.23L190.85,420.43z"/>
	<path class="st2" d="M183.84,439.82c0.18,0.08,0.36,0.17,0.55,0.25c6.47,2.78,12.86,2.39,14.27-0.88c1.4-3.27-2.71-8.17-9.18-10.96
		c-0.19-0.08-0.38-0.15-0.56-0.23L183.84,439.82z"/>
	<path class="st3" d="M185.76,432.26c-0.18-0.08-0.36-0.17-0.55-0.25c-6.47-2.78-12.86-2.39-14.27,0.88
		c-1.4,3.27,2.71,8.17,9.18,10.96c0.19,0.08,0.38,0.15,0.56,0.23L185.76,432.26z"/>
	<path class="st3" d="M180.68,444.1c-0.18-0.08-0.36-0.17-0.55-0.25c-6.47-2.78-12.86-2.39-14.27,0.88
		c-1.4,3.27,2.71,8.17,9.18,10.96c0.19,0.08,0.38,0.15,0.56,0.23L180.68,444.1z"/>
	<path class="st2" d="M178.76,451.65c0.18,0.08,0.36,0.17,0.55,0.25c6.47,2.78,12.86,2.39,14.27-0.88c1.4-3.27-2.71-8.17-9.18-10.96
		c-0.19-0.08-0.38-0.15-0.56-0.23L178.76,451.65z"/>
	<path class="st2" d="M312.89,136.36c-0.16-0.07-0.31-0.15-0.47-0.21c-5.46-2.34-10.79-2.13-11.91,0.48
		c-1.12,2.61,2.39,6.63,7.85,8.97c0.16,0.07,0.32,0.13,0.48,0.19L312.89,136.36z"/>
	<path class="st3" d="M305.35,155.61c0.16,0.07,0.31,0.15,0.47,0.21c5.46,2.34,10.81,2.08,11.96-0.59c1.15-2.67-2.34-6.74-7.8-9.08
		c-0.16-0.07-0.32-0.13-0.48-0.19L305.35,155.61z"/>
	<path class="st2" d="M307.79,148.24c-0.16-0.07-0.31-0.15-0.47-0.21c-5.46-2.34-10.79-2.13-11.91,0.48s2.39,6.63,7.85,8.97
		c0.16,0.07,0.32,0.13,0.48,0.19L307.79,148.24z"/>
	<path class="st3" d="M300.24,167.48c0.16,0.07,0.31,0.15,0.47,0.21c5.46,2.34,10.81,2.08,11.96-0.59s-2.34-6.74-7.8-9.08
		c-0.16-0.07-0.32-0.13-0.48-0.19L300.24,167.48z"/>
	<path class="st2" d="M302.75,159.98c-0.16-0.07-0.31-0.15-0.47-0.21c-5.46-2.34-10.79-2.13-11.91,0.48s2.39,6.63,7.85,8.97
		c0.16,0.07,0.32,0.13,0.48,0.19L302.75,159.98z"/>
	<path class="st3" d="M295.2,179.22c0.16,0.07,0.31,0.15,0.47,0.21c5.46,2.34,10.81,2.08,11.96-0.59c1.15-2.67-2.34-6.74-7.8-9.08
		c-0.16-0.07-0.32-0.13-0.48-0.19L295.2,179.22z"/>
	<path class="st2" d="M297.64,171.85c-0.16-0.07-0.31-0.15-0.47-0.21c-5.46-2.34-10.79-2.13-11.91,0.48
		c-1.12,2.61,2.39,6.63,7.85,8.97c0.16,0.07,0.32,0.13,0.48,0.19L297.64,171.85z"/>
	<path class="st3" d="M290.1,191.1c0.16,0.07,0.31,0.15,0.47,0.21c5.46,2.34,10.81,2.08,11.96-0.59c1.15-2.67-2.34-6.74-7.8-9.08
		c-0.16-0.07-0.32-0.13-0.48-0.19L290.1,191.1z"/>
	<path class="st2" d="M292.54,183.72c-0.16-0.07-0.31-0.15-0.47-0.21c-5.46-2.34-10.79-2.13-11.91,0.48
		c-1.12,2.61,2.39,6.63,7.85,8.97c0.16,0.07,0.32,0.13,0.48,0.19L292.54,183.72z"/>
	<path class="st3" d="M284.99,202.97c0.16,0.07,0.31,0.15,0.47,0.21c5.46,2.34,10.81,2.08,11.96-0.59c1.15-2.67-2.34-6.74-7.8-9.08
		c-0.16-0.07-0.32-0.13-0.48-0.19L284.99,202.97z"/>
	<path class="st2" d="M287.5,195.47c-0.16-0.07-0.31-0.15-0.47-0.21c-5.46-2.34-10.79-2.13-11.91,0.48s2.39,6.63,7.85,8.97
		c0.16,0.07,0.32,0.13,0.48,0.19L287.5,195.47z"/>
	<path class="st3" d="M279.95,214.71c0.16,0.07,0.31,0.15,0.47,0.21c5.46,2.34,10.81,2.08,11.96-0.59c1.15-2.67-2.34-6.74-7.8-9.08
		c-0.16-0.07-0.32-0.13-0.48-0.19L279.95,214.71z"/>
	<path class="st2" d="M282.39,207.34c-0.16-0.07-0.31-0.15-0.47-0.21c-5.46-2.34-10.79-2.13-11.91,0.48s2.39,6.63,7.85,8.97
		c0.16,0.07,0.32,0.13,0.48,0.19L282.39,207.34z"/>
	<path class="st3" d="M274.85,226.58c0.16,0.07,0.31,0.15,0.47,0.21c5.46,2.34,10.81,2.08,11.96-0.59s-2.34-6.74-7.8-9.08
		c-0.16-0.07-0.32-0.13-0.48-0.19L274.85,226.58z"/>
	<path class="st2" d="M277.29,219.21c-0.16-0.07-0.31-0.15-0.47-0.21c-5.46-2.34-10.79-2.13-11.91,0.48
		c-1.12,2.61,2.39,6.63,7.85,8.97c0.16,0.07,0.32,0.13,0.48,0.19L277.29,219.21z"/>
	<path class="st3" d="M269.74,238.46c0.16,0.07,0.31,0.15,0.47,0.21c5.46,2.34,10.81,2.08,11.96-0.59c1.15-2.67-2.34-6.74-7.8-9.08
		c-0.16-0.07-0.32-0.13-0.48-0.19L269.74,238.46z"/>
	<path class="st2" d="M272.19,231.08c-0.16-0.07-0.31-0.15-0.47-0.21c-5.46-2.34-10.79-2.13-11.91,0.48
		c-1.12,2.61,2.39,6.63,7.85,8.97c0.16,0.07,0.32,0.13,0.48,0.19L272.19,231.08z"/>
	<path class="st3" d="M264.64,250.33c0.16,0.07,0.31,0.15,0.47,0.21c5.46,2.34,10.81,2.08,11.96-0.59c1.15-2.67-2.34-6.74-7.8-9.08
		c-0.16-0.07-0.32-0.13-0.48-0.19L264.64,250.33z"/>
	<path class="st2" d="M267.14,242.83c-0.16-0.07-0.31-0.15-0.47-0.21c-5.46-2.34-10.79-2.13-11.91,0.48
		c-1.12,2.61,2.39,6.63,7.85,8.97c0.16,0.07,0.32,0.13,0.48,0.19L267.14,242.83z"/>
	<path class="st3" d="M259.6,262.07c0.16,0.07,0.31,0.15,0.47,0.21c5.46,2.34,10.81,2.08,11.96-0.59s-2.34-6.74-7.8-9.08
		c-0.16-0.07-0.32-0.13-0.48-0.19L259.6,262.07z"/>
	<path class="st2" d="M262.04,254.7c-0.16-0.07-0.31-0.15-0.47-0.21c-5.46-2.34-10.79-2.13-11.91,0.48s2.39,6.63,7.85,8.97
		c0.16,0.07,0.32,0.13,0.48,0.19L262.04,254.7z"/>
	<path class="st3" d="M254.49,273.95c0.16,0.07,0.31,0.15,0.47,0.21c5.46,2.34,10.81,2.08,11.96-0.59c1.15-2.67-2.34-6.74-7.8-9.08
		c-0.16-0.07-0.32-0.13-0.48-0.19L254.49,273.95z"/>
	<path class="st2" d="M256.94,266.57c-0.16-0.07-0.31-0.15-0.47-0.21c-5.46-2.34-10.79-2.13-11.91,0.48
		c-1.12,2.61,2.39,6.63,7.85,8.97c0.16,0.07,0.32,0.13,0.48,0.19L256.94,266.57z"/>
	<path class="st3" d="M249.39,285.82c0.16,0.07,0.31,0.15,0.47,0.21c5.46,2.34,10.81,2.08,11.96-0.59s-2.34-6.74-7.8-9.08
		c-0.16-0.07-0.32-0.13-0.48-0.19L249.39,285.82z"/>
	<path class="st2" d="M251.84,278.45c-0.16-0.07-0.31-0.15-0.47-0.21c-5.46-2.34-10.79-2.13-11.91,0.48
		c-1.12,2.61,2.39,6.63,7.85,8.97c0.16,0.07,0.32,0.13,0.48,0.19L251.84,278.45z"/>
	<path class="st3" d="M244.29,297.69c0.16,0.07,0.31,0.15,0.47,0.21c5.46,2.34,10.81,2.08,11.96-0.59s-2.34-6.74-7.8-9.08
		c-0.16-0.07-0.32-0.13-0.48-0.19L244.29,297.69z"/>
	<path class="st2" d="M246.74,290.32c-0.16-0.07-0.31-0.15-0.47-0.21c-5.46-2.34-10.79-2.13-11.91,0.48
		c-1.12,2.61,2.39,6.63,7.85,8.97c0.16,0.07,0.32,0.13,0.48,0.19L246.74,290.32z"/>
	<path class="st3" d="M239.19,309.56c0.16,0.07,0.31,0.15,0.47,0.21c5.46,2.34,10.81,2.08,11.96-0.59s-2.34-6.74-7.8-9.08
		c-0.16-0.07-0.32-0.13-0.48-0.19L239.19,309.56z"/>
	<path class="st2" d="M241.69,302.06c-0.16-0.07-0.31-0.15-0.47-0.21c-5.46-2.34-10.79-2.13-11.91,0.48
		c-1.12,2.61,2.39,6.63,7.85,8.97c0.16,0.07,0.32,0.13,0.48,0.19L241.69,302.06z"/>
	<path class="st3" d="M234.14,321.31c0.16,0.07,0.31,0.15,0.47,0.21c5.46,2.34,10.81,2.08,11.96-0.59c1.15-2.67-2.34-6.74-7.8-9.08
		c-0.16-0.07-0.32-0.13-0.48-0.19L234.14,321.31z"/>
	<path class="st2" d="M236.59,313.93c-0.16-0.07-0.31-0.15-0.47-0.21c-5.46-2.34-10.79-2.13-11.91,0.48
		c-1.12,2.61,2.39,6.63,7.85,8.97c0.16,0.07,0.32,0.13,0.48,0.19L236.59,313.93z"/>
	<path class="st3" d="M229.04,333.18c0.16,0.07,0.31,0.15,0.47,0.21c5.46,2.34,10.81,2.08,11.96-0.59s-2.34-6.74-7.8-9.08
		c-0.16-0.07-0.32-0.13-0.48-0.19L229.04,333.18z"/>
	<path class="st2" d="M231.49,325.81c-0.16-0.07-0.31-0.15-0.47-0.21c-5.46-2.34-10.79-2.13-11.91,0.48
		c-1.12,2.61,2.39,6.63,7.85,8.97c0.16,0.07,0.32,0.13,0.48,0.19L231.49,325.81z"/>
	<path class="st3" d="M223.94,345.05c0.16,0.07,0.31,0.15,0.47,0.21c5.46,2.34,10.81,2.08,11.96-0.59c1.15-2.67-2.34-6.74-7.8-9.08
		c-0.16-0.07-0.32-0.13-0.48-0.19L223.94,345.05z"/>
	<path class="st2" d="M226.44,337.55c-0.16-0.07-0.31-0.15-0.47-0.21c-5.46-2.34-10.79-2.13-11.91,0.48
		c-1.12,2.61,2.39,6.63,7.85,8.97c0.16,0.07,0.32,0.13,0.48,0.19L226.44,337.55z"/>
	<path class="st3" d="M218.89,356.79c0.16,0.07,0.31,0.15,0.47,0.21c5.46,2.34,10.81,2.08,11.96-0.59s-2.34-6.74-7.8-9.08
		c-0.16-0.07-0.32-0.13-0.48-0.19L218.89,356.79z"/>
	<path class="st2" d="M221.34,349.42c-0.16-0.07-0.31-0.15-0.47-0.21c-5.46-2.34-10.79-2.13-11.91,0.48s2.39,6.63,7.85,8.97
		c0.16,0.07,0.32,0.13,0.48,0.19L221.34,349.42z"/>
	<path class="st3" d="M213.79,368.67c0.16,0.07,0.31,0.15,0.47,0.21c5.46,2.34,10.81,2.08,11.96-0.59c1.15-2.67-2.34-6.74-7.8-9.08
		c-0.16-0.07-0.32-0.13-0.48-0.19L213.79,368.67z"/>
	<path class="st2" d="M216.24,361.29c-0.16-0.07-0.31-0.15-0.47-0.21c-5.46-2.34-10.79-2.13-11.91,0.48
		c-1.12,2.61,2.39,6.63,7.85,8.97c0.16,0.07,0.32,0.13,0.48,0.19L216.24,361.29z"/>
	<path class="st3" d="M208.69,380.54c0.16,0.07,0.31,0.15,0.47,0.21c5.46,2.34,10.81,2.08,11.96-0.59c1.15-2.67-2.34-6.74-7.8-9.08
		c-0.16-0.07-0.32-0.13-0.48-0.19L208.69,380.54z"/>
	<path class="st2" d="M211.14,373.17c-0.16-0.07-0.31-0.15-0.47-0.21c-5.46-2.34-10.79-2.13-11.91,0.48
		c-1.12,2.61,2.39,6.63,7.85,8.97c0.16,0.07,0.32,0.13,0.48,0.19L211.14,373.17z"/>
	<path class="st3" d="M203.59,392.41c0.16,0.07,0.31,0.15,0.47,0.21c5.46,2.34,10.81,2.08,11.96-0.59s-2.34-6.74-7.8-9.08
		c-0.16-0.07-0.32-0.13-0.48-0.19L203.59,392.41z"/>
	<path class="st2" d="M206.09,384.91c-0.16-0.07-0.31-0.15-0.47-0.21c-5.46-2.34-10.79-2.13-11.91,0.48
		c-1.12,2.61,2.39,6.63,7.85,8.97c0.16,0.07,0.32,0.13,0.48,0.19L206.09,384.91z"/>
	<path class="st3" d="M198.54,404.16c0.16,0.07,0.31,0.15,0.47,0.21c5.46,2.34,10.81,2.08,11.96-0.59c1.15-2.67-2.34-6.74-7.8-9.08
		c-0.16-0.07-0.32-0.13-0.48-0.19L198.54,404.16z"/>
	<path class="st2" d="M200.99,396.78c-0.16-0.07-0.31-0.15-0.47-0.21c-5.46-2.34-10.79-2.13-11.91,0.48s2.39,6.63,7.85,8.97
		c0.16,0.07,0.32,0.13,0.48,0.19L200.99,396.78z"/>
	<path class="st3" d="M193.44,416.03c0.16,0.07,0.31,0.15,0.47,0.21c5.46,2.34,10.81,2.08,11.96-0.59c1.15-2.67-2.34-6.74-7.8-9.08
		c-0.16-0.07-0.32-0.13-0.48-0.19L193.44,416.03z"/>
	<path class="st2" d="M195.83,408.78c-0.16-0.07-0.31-0.15-0.47-0.21c-5.46-2.34-10.79-2.13-11.91,0.48
		c-1.12,2.61,2.39,6.63,7.85,8.97c0.16,0.07,0.32,0.13,0.48,0.19L195.83,408.78z"/>
	<path class="st3" d="M188.28,428.03c0.16,0.07,0.31,0.15,0.47,0.21c5.46,2.34,10.81,2.08,11.96-0.59s-2.34-6.74-7.8-9.08
		c-0.16-0.07-0.32-0.13-0.48-0.19L188.28,428.03z"/>
	<path class="st2" d="M190.73,420.66c-0.16-0.07-0.31-0.15-0.47-0.21c-5.46-2.34-10.79-2.13-11.91,0.48
		c-1.12,2.61,2.39,6.63,7.85,8.97c0.16,0.07,0.32,0.13,0.48,0.19L190.73,420.66z"/>
	<path class="st3" d="M183.18,439.9c0.16,0.07,0.31,0.15,0.47,0.21c5.46,2.34,10.81,2.08,11.96-0.59s-2.34-6.74-7.8-9.08
		c-0.16-0.07-0.32-0.13-0.48-0.19L183.18,439.9z"/>
	<path class="st2" d="M185.63,432.53c-0.16-0.07-0.31-0.15-0.47-0.21c-5.46-2.34-10.79-2.13-11.91,0.48
		c-1.12,2.61,2.39,6.63,7.85,8.97c0.16,0.07,0.32,0.13,0.48,0.19L185.63,432.53z"/>
	<path class="st3" d="M178.08,451.77c0.16,0.07,0.31,0.15,0.47,0.21c5.46,2.34,10.81,2.08,11.96-0.59c1.15-2.67-2.34-6.74-7.8-9.08
		c-0.16-0.07-0.32-0.13-0.48-0.19L178.08,451.77z"/>
	<path class="st2" d="M180.58,444.27c-0.16-0.07-0.31-0.15-0.47-0.21c-5.46-2.34-10.79-2.13-11.91,0.48
		c-1.12,2.61,2.39,6.63,7.85,8.97c0.16,0.07,0.32,0.13,0.48,0.19L180.58,444.27z"/>
</g>
<path class="st4" d="M298.81,242.47l-45.54-18.5c-3.97-1.61-5.88-6.14-4.27-10.1l68.93-169.73c1.61-3.97,6.14-5.88,10.1-4.27
	l45.54,18.5c3.97,1.61,5.88,6.14,4.27,10.1l-68.93,169.73C307.31,242.18,302.78,244.09,298.81,242.47z"/>
<path class="st5" d="M314.06,204.36l-45.54-18.5c-3.97-1.61-5.88-6.14-4.27-10.1L333.19,6.02c1.61-3.97,6.14-5.88,10.1-4.27
	l45.54,18.5c3.97,1.61,5.88,6.14,4.27,10.1l-68.93,169.73C322.55,204.06,318.03,205.97,314.06,204.36z"/>
<path class="st6" d="M375.14,74.56l-1.88,4.62c-0.03,0.99-0.22,1.93-0.6,2.83c-3.33,7.94-19.48,8.74-36.06,1.78c0,0,0,0-0.01,0
	l0-0.01c-0.08-0.03-0.17-0.06-0.25-0.1c-0.08-0.04-0.16-0.07-0.24-0.11l0,0.01c0,0,0,0-0.01,0c-16.66-6.77-27.55-18.72-24.31-26.7
	c0.41-1.01,1.03-1.9,1.83-2.68l1.77-4.36c-5.92,1.15-10.27,3.85-11.96,8.01c-4.05,9.98,8.69,24.59,28.47,32.62
	c0.48,0.19,0.95,0.36,1.43,0.54c0.46,0.21,0.92,0.43,1.39,0.63c19.68,8.26,39.02,6.89,43.19-3.04
	C379.64,84.47,378.48,79.53,375.14,74.56z"/>
<path class="st6" d="M365.44,98.06l-1.88,4.62c-0.03,0.99-0.22,1.93-0.6,2.83c-3.33,7.94-19.48,8.74-36.06,1.78c0,0,0,0-0.01,0
	l0-0.01c-0.08-0.03-0.17-0.06-0.25-0.1c-0.08-0.04-0.16-0.07-0.24-0.11l-0.01,0.01c0,0,0,0-0.01,0
	c-16.66-6.77-27.55-18.72-24.31-26.7c0.41-1.01,1.03-1.9,1.83-2.68l1.77-4.36c-5.92,1.15-10.27,3.85-11.96,8.01
	c-4.05,9.98,8.69,24.59,28.47,32.62c0.48,0.19,0.95,0.36,1.43,0.54c0.46,0.21,0.92,0.43,1.39,0.63c19.68,8.26,39.02,6.89,43.19-3.04
	C369.94,107.97,368.78,103.03,365.44,98.06z"/>
<path class="st6" d="M356.03,120.87l-1.88,4.62c-0.03,0.99-0.22,1.93-0.6,2.83c-3.33,7.94-19.48,8.74-36.06,1.78c0,0,0,0-0.01,0
	l0-0.01c-0.08-0.03-0.17-0.06-0.25-0.1c-0.08-0.04-0.16-0.07-0.24-0.11l-0.01,0.01c0,0,0,0-0.01,0
	c-16.66-6.77-27.55-18.72-24.31-26.7c0.41-1.01,1.03-1.9,1.83-2.68l1.77-4.36c-5.92,1.15-10.27,3.85-11.96,8.01
	c-4.05,9.98,8.69,24.59,28.47,32.62c0.48,0.19,0.95,0.36,1.43,0.54c0.46,0.21,0.92,0.43,1.39,0.63c19.68,8.26,39.02,6.89,43.19-3.04
	C360.53,130.77,359.37,125.83,356.03,120.87z"/>
<path class="st6" d="M346.76,143.32l-1.88,4.62c-0.03,0.99-0.22,1.93-0.6,2.83c-3.33,7.94-19.48,8.74-36.06,1.78c0,0,0,0-0.01,0
	l0-0.01c-0.08-0.03-0.17-0.06-0.25-0.1c-0.08-0.04-0.16-0.07-0.24-0.11l-0.01,0.01c0,0,0,0-0.01,0
	c-16.66-6.77-27.55-18.72-24.31-26.7c0.41-1.01,1.03-1.9,1.83-2.68l1.77-4.36c-5.92,1.15-10.27,3.85-11.96,8.01
	c-4.05,9.98,8.69,24.59,28.47,32.62c0.48,0.19,0.95,0.36,1.43,0.54c0.46,0.21,0.92,0.43,1.39,0.63c19.68,8.26,39.02,6.89,43.19-3.04
	C351.26,153.22,350.1,148.28,346.76,143.32z"/>
</svg>
