<?xml version="1.0" encoding="utf-8"?>
<!-- Generator: Adobe Illustrator 23.0.1, SVG Export Plug-In . SVG Version: 6.00 Build 0)  -->
<svg version="1.1" id="Layer_1" xmlns="http://www.w3.org/2000/svg" xmlns:xlink="http://www.w3.org/1999/xlink" x="0px" y="0px"
	 viewBox="0 0 600 600" style="enable-background:new 0 0 600 600;" xml:space="preserve">
<style type="text/css">
	.st0{fill:#B3B2B3;}
	.st1{fill:#E4E4E3;}
	.st2{fill:#00A99D;}
</style>
<g>
	<path class="st0" d="M490.5,24.85L383.3,0.88l-0.23-0.68H222.79V0L110.58,24.17v0.32l82.91,423.31h29.62l-0.03-48.93l174.98,60.56
		l48.59,128.97l27.24-253.7l-7.44-15.47l9.96-31.52L490.5,24.85z M376.69,105.49l-148.33-0.88L121.94,37.96l105.68-20.63h150.61
		l105.52,21.14L376.69,105.49z"/>
	<polygon class="st0" points="222.86,597.81 223.21,599.56 223.21,597.81 	"/>
</g>
<polygon class="st1" points="490.84,24.97 379.94,95.63 231.45,95.63 111.14,25.28 110.23,259.19 138.25,331.57 149.63,379.75 
	132.79,464.73 149.16,494.6 149.16,447.8 233.06,447.8 233.06,459.01 261.36,415.54 334.76,424.4 393.1,418.44 412.56,426.24 
	446.98,588.5 476.36,505.95 490.84,369.81 490.84,369.62 466.88,319.33 490.84,243.01 "/>
<g id="XMLID_77_">
	<path id="XMLID_98_" class="st2" d="M259.62,362.86c0.66,1.62,0.94,3.26,0.79,4.9c-1.2,12.83-28.17,20.81-60.24,17.81
		s-57.09-15.84-55.89-28.67c0.16-1.7,0.78-3.31,1.79-4.82c-13.88,4.3-22.81,11.04-23.58,19.31c-1.6,17.08,32.11,34.2,75.28,38.24
		c43.18,4.04,79.47-6.53,81.07-23.61C279.62,377.83,272.25,369.63,259.62,362.86z"/>
	<path id="XMLID_78_" class="st2" d="M253.38,393.65c0.62,1.62,0.87,3.25,0.72,4.9c-1.2,12.83-26.65,20.95-56.85,18.12
		s-53.7-15.52-52.5-28.35c0.16-1.7,0.75-3.31,1.71-4.83c-13.1,4.37-21.55,11.15-22.32,19.42c-1.6,17.08,30.06,34.01,70.72,37.82
		c40.65,3.8,74.91-6.96,76.51-24.04C272.14,408.5,265.24,400.34,253.38,393.65z"/>
	<path id="XMLID_100_" class="st2" d="M245.82,424.99c0.55,1.61,0.77,3.25,0.62,4.89c-1.2,12.83-24.56,21.14-52.17,18.56
		c-27.61-2.58-49.02-15.08-47.82-27.92c0.16-1.7,0.71-3.31,1.61-4.84c-12.03,4.47-19.81,11.32-20.58,19.59
		c-1.6,17.08,27.24,33.75,64.42,37.23c37.18,3.48,68.61-7.55,70.21-24.63C262.87,439.67,256.62,431.58,245.82,424.99z"/>
	<path id="XMLID_102_" class="st2" d="M238.29,455.99c0.49,1.6,0.67,3.24,0.52,4.88c-1.2,12.83-22.46,21.34-47.49,19
		c-25.03-2.34-44.34-14.64-43.14-27.48c0.16-1.7,0.68-3.31,1.5-4.85c-10.95,4.57-18.07,11.48-18.84,19.75
		c-1.6,17.08,24.42,33.49,58.12,36.64c33.7,3.15,62.31-8.14,63.91-25.22C253.63,470.51,248.03,462.48,238.29,455.99z"/>
	<path id="XMLID_104_" class="st2" d="M230.81,486.99c0.42,1.6,0.57,3.23,0.42,4.87c-1.2,12.83-20.39,21.53-42.86,19.43
		c-22.47-2.1-39.71-14.21-38.51-27.05c0.16-1.7,0.64-3.32,1.39-4.86c-9.88,4.67-16.35,11.64-17.12,19.91
		c-1.6,17.08,21.63,33.22,51.89,36.06c30.25,2.83,56.08-8.72,57.68-25.8C244.46,501.36,239.5,493.39,230.81,486.99z"/>
	<path id="XMLID_106_" class="st2" d="M221.63,517.84c0.33,1.59,0.44,3.21,0.28,4.85c-1.2,12.83-17.54,21.8-36.5,20.03
		s-33.36-13.62-32.15-26.45c0.16-1.7,0.59-3.32,1.25-4.87c-8.42,4.81-13.98,11.86-14.76,20.13c-1.6,17.08,17.8,32.87,43.33,35.25
		c25.53,2.39,47.52-9.52,49.12-26.6C232.96,531.99,228.88,524.1,221.63,517.84z"/>
	<path id="XMLID_97_" class="st2" d="M205.77,548.4c0.15,1.57,0.16,3.19,0,4.83c-1.2,12.83-11.66,22.35-23.36,21.26
		c-11.7-1.1-20.22-12.39-19.02-25.22c0.16-1.7,0.48-3.33,0.95-4.9c-5.4,5.09-9.1,12.32-9.87,20.59c-1.6,17.08,9.88,32.12,25.64,33.6
		c15.76,1.47,29.83-11.18,31.43-28.26C212.29,562.1,210.05,554.38,205.77,548.4z"/>
</g>
</svg>
