<?xml version="1.0" encoding="utf-8"?>
<!-- Generator: Adobe Illustrator 23.0.1, SVG Export Plug-In . SVG Version: 6.00 Build 0)  -->
<svg version="1.1" id="Layer_1" xmlns="http://www.w3.org/2000/svg" xmlns:xlink="http://www.w3.org/1999/xlink" x="0px" y="0px"
	 viewBox="0 0 1920 1080" style="enable-background:new 0 0 1920 1080;" xml:space="preserve">
<style type="text/css">
	.st0{fill:#B3B2B3;}
	.st1{fill:#FFFFFF;}
	.st2{fill:#CBCACA;}
	.st3{fill:#F2F2F2;}
	.st4{fill:#E4E4E3;}
	.st5{fill:#00A99D;}
</style>
<g id="XMLID_277_">
	<polygon id="XMLID_372_" class="st0" points="1264.3,497.2 1247,551.7 1259.9,578.4 1212.8,1017.2 1128.8,794.1 826.2,689.4 
		826.4,1036.5 631.6,42 631.6,41.5 825.7,-0.3 825.7,0 1102.9,0 1102.2,665.9 1103.3,1.2 1288.6,42.6 	"/>
	<polygon id="XMLID_280_" class="st1" points="1277,66.2 1091.8,182.1 835.3,180.6 651.3,65.3 834,29.6 1094.5,29.6 	"/>
	<polygon id="XMLID_282_" class="st2" points="1289.2,42.8 1289.2,419.9 1247.8,551.9 1289.2,638.8 1289.2,639.1 1264.2,874.6 
		1213.4,1017.3 1153.8,736.7 1120.2,723.3 1097.4,165 	"/>
	<polygon id="XMLID_283_" class="st3" points="827.4,1037.8 767.7,981.5 670.1,803.3 699.2,656.3 679.5,573 631,447.9 632.6,43.4 
		840.7,165 824.6,822.4 800.3,880.1 	"/>
	<polygon id="XMLID_284_" class="st4" points="1118,668.8 1097.4,165 840.7,165 824.6,822.4 892.4,718.2 1019.3,733.5 1120.2,723.3 
		1119.5,706.7 	"/>
</g>
<g>
	<path id="XMLID_311_" class="st5" d="M31,657.1H0.3V381.2h87.3c37.4,0,67,6.7,88.8,20.1s32.7,34.4,32.7,63.1
		c-0.3,28.4-12.2,49.8-35.7,64.1c-23.5,14.3-53.9,21.5-91.3,21.5H31V657.1z M88.5,402.7H31v125.8h52.1c28.4,0,51.3-5.1,68.4-15.4
		c17.2-10.3,26-26.4,26.3-48.3c0-22.5-7.6-38.4-22.8-47.9C139.8,407.4,117.6,402.7,88.5,402.7z"/>
	<path id="XMLID_314_" class="st5" d="M431.2,374.7c29.7,0,56.4,6.1,80.1,18.3c23.6,12.2,42.1,29.1,55.3,50.7
		c13.2,21.6,19.8,46.1,19.8,73.4c0,27.3-6.8,52-20.3,74c-13.5,22-32.4,39.4-56.5,52.1c-24.1,12.7-51.3,19.2-81.3,19.5
		c-29.4,0-56-6.1-79.6-18.3c-23.6-12.2-42.1-29.1-55.3-50.7c-13.2-21.6-19.8-46.1-19.8-73.4c0-27.3,6.8-51.9,20.3-73.9
		c13.5-21.9,32.3-39.2,56.3-51.9C374.1,381.9,401.1,375.2,431.2,374.7z M306.3,520c0,23,5.2,43.6,15.6,61.9
		c10.4,18.3,24.8,32.6,43.1,43c18.4,10.4,39.1,15.6,62.2,15.6c24.1,0,45.7-5.3,64.7-15.8c19-10.5,33.9-25.2,44.6-43.8
		c10.7-18.7,16.1-39.8,16.1-63.3c0-23-5.2-43.6-15.6-61.9c-10.4-18.3-24.8-32.5-43.1-42.8c-18.3-10.3-39.1-15.4-62.2-15.4
		c-24.1,0-45.7,5.3-64.7,15.8c-19,10.5-33.9,25.2-44.6,43.8C311.6,475.7,306.3,496.7,306.3,520z"/>
	<path id="XMLID_333_" class="st5" d="M875.1,657.1H680.7V381.2h30.7v255.6h161.2L875.1,657.1z"/>
	<path id="XMLID_338_" class="st5" d="M1270.3,381.2h87.3c37.7,0,67.4,6.2,89,18.7c21.7,12.5,32.5,32.5,32.5,60.1
		c-0.3,35.2-20.5,59.2-60.5,72.2l87.3,125h-34.7L1391.4,539c-13.9,1.4-26.9,2-39.2,2h-51.1v116h-30.7L1270.3,381.2L1270.3,381.2z
		 M1358.6,402.7h-57.5v117.7h52.1c28.1,0,50.8-4.6,68.2-13.8c17.3-9.2,26.2-24.5,26.5-45.9c0-21.9-7.7-37.1-23.1-45.4
		C1409.5,406.9,1387.4,402.7,1358.6,402.7z"/>
	<path id="XMLID_365_" class="st5" d="M1582.8,657.1V381.2h30.7v275.9H1582.8z"/>
	<path id="XMLID_367_" class="st5" d="M1713.2,645.3l7.4-19.5c10.6,4.3,23.2,8,37.7,11.2c14.5,3.1,29.4,4.7,44.6,4.7
		c27.8,0,49.4-4.6,64.7-13.8c15.4-9.2,23.1-21.1,23.1-35.7c0-10.3-3.4-19.1-10.2-26.6c-6.8-7.4-16.5-14.3-29.3-20.5
		c-12.7-6.2-30.2-13.1-52.3-20.7c-60.8-21.1-91.3-48.5-91.3-82.4c0-12.4,4.4-23.8,13.1-34.1c8.8-10.3,21.1-18.4,36.9-24.3
		c15.9-6,34.2-8.9,55-8.9c15.5,0,30.5,1.5,44.9,4.5c14.4,3,27.2,6.8,38.4,11.4l-10.9,19.1c-11.9-4.3-23-7.7-33.2-10.1
		c-10.3-2.4-23-3.6-38.2-3.6c-23.8,0-42.6,4.2-56.5,12.6c-13.9,8.4-20.8,19.6-20.8,33.7c0,10.3,3.4,19.1,10.2,26.4
		c6.8,7.3,16.3,13.9,28.5,19.9c12.2,6,30.2,13.5,54.1,22.7c22.1,8.4,39.5,16.2,52.1,23.3c12.6,7.2,22.2,15.4,28.8,24.5
		c6.6,9.2,9.9,20.3,9.9,33.3c0,13.5-4.6,25.6-13.9,36.3c-9.3,10.7-22.7,19-40.4,25c-17.7,6-38.4,8.9-62.2,8.9
		c-14.2,0-30.1-1.6-47.6-4.9C1738.3,654.3,1724.1,650.2,1713.2,645.3z"/>
	<polygon class="st5" points="1064.5,381.2 1032.3,381.2 909.8,657.1 939,657.1 976.9,574.3 1048.6,413.1 1123.5,574.3 
		1163.2,659.1 1193.5,655.1 	"/>
</g>
</svg>
