<?xml version="1.0" encoding="utf-8"?>
<!-- Generator: Adobe Illustrator 23.0.1, SVG Export Plug-In . SVG Version: 6.00 Build 0)  -->
<svg version="1.1" id="Layer_1" xmlns="http://www.w3.org/2000/svg" xmlns:xlink="http://www.w3.org/1999/xlink" x="0px" y="0px"
	 viewBox="0 0 600 600" style="enable-background:new 0 0 600 600;" xml:space="preserve">
<style type="text/css">
	.st0{fill:#B3B2B3;}
	.st1{fill:#E4E4E3;}
	.st2{fill:#CCCCCC;}
	.st3{fill:#999999;}
	.st4{fill:#FF9900;}
	.st5{fill:#CC6600;}
</style>
<path class="st0" d="M495.28,24.83L388.15,0.88l-0.23-0.68H227.74V0L115.59,24.16v0.32l112.56,574.73l-0.13-200.58l174.88,60.53
	l48.56,128.89l27.22-253.55l-7.44-15.46l9.96-31.5L495.28,24.83z M381.55,105.43l-148.24-0.88L126.94,37.93l105.61-20.62h150.53
	l105.46,21.13L381.55,105.43z"/>
<polygon class="st1" points="495.63,24.95 384.79,95.58 236.38,95.58 116.15,25.27 115.24,259.04 143.24,331.38 154.61,379.52 
	137.79,464.45 194.22,567.46 228.72,600 213.08,508.84 227.11,475.48 266.28,415.29 339.63,424.15 397.94,418.2 417.39,425.99 
	451.79,588.16 481.16,505.65 495.63,369.59 495.63,369.4 471.68,319.15 495.63,242.86 "/>
<g>
	<path class="st2" d="M169.78,427l128.15-204.79l44.5,27.85l-21.07,29.35c-1.05,1.47-2.33,2.77-3.78,3.85l-8.13,6.07
		c-5.32,3.98-7.53,10.9-5.49,17.22l4.15,12.88c3.02,9.39-0.25,19.65-8.15,25.56l-1.67,1.25l-24.82,18.55l-15.3,11.43l-18.19,13.59
		l-15.06,11.25l-14.05,10.5l-3.63,2.71c-7.92,5.92-17.19,9.77-26.97,11.19L169.78,427z"/>
	<path class="st3" d="M186.23,408.58l110.49-176.57l15.91,9.96l-17.19,25.92c-0.86,1.3-1.79,2.52-2.76,3.63l-5.44,6.22
		c-3.56,4.07-6.23,9.56-6.65,13.65l-0.85,8.33c-0.62,6.07-4.59,14.21-9.87,20.26l-1.12,1.28l-16.61,19l-10.24,11.71l-12.17,13.92
		l-10.08,11.52l-9.4,10.75l-2.43,2.78c-5.3,6.06-10.8,10.93-16.01,14.18L186.23,408.58z"/>
</g>
<g>
	<path class="st4" d="M354.29,269.98l-63.99-38.93c-3.66-2.23-4.82-7-2.59-10.66L417.33,7.37c2.23-3.66,7-4.82,10.66-2.59
		l63.99,38.93c3.66,2.23,4.82,7,2.59,10.66L364.95,267.39C362.72,271.05,357.95,272.21,354.29,269.98z"/>
	<path class="st5" d="M374.83,244.95l-3.46,5.68c-0.25,1.29-0.71,2.49-1.39,3.59c-6.08,9.74-27.49,7.34-47.83-5.36c0,0,0,0-0.01,0
		l0.01-0.01c-0.1-0.06-0.21-0.12-0.31-0.18c-0.1-0.06-0.2-0.13-0.3-0.19l-0.01,0.01c0,0,0,0-0.01,0
		c-20.48-12.46-32.25-30.51-26.29-40.32c0.75-1.24,1.76-2.28,2.98-3.14l3.26-5.36c-8.04,0.25-14.33,2.87-17.44,7.98
		c-7.47,12.27,6.19,34.2,30.49,48.99c0.59,0.36,1.18,0.68,1.77,1.02c0.56,0.38,1.12,0.76,1.7,1.12
		c24.14,15.06,49.87,17.4,57.47,5.22C378.63,258.94,378.16,252.19,374.83,244.95z"/>
	<path class="st5" d="M386.14,226.87l-3.46,5.68c-0.25,1.29-0.71,2.49-1.39,3.59c-6.08,9.74-27.49,7.34-47.83-5.36c0,0,0,0-0.01,0
		l0.01-0.01c-0.1-0.06-0.21-0.12-0.31-0.18c-0.1-0.06-0.2-0.13-0.3-0.19l-0.01,0.01c0,0,0,0-0.01,0
		c-20.48-12.46-32.25-30.51-26.29-40.32c0.75-1.24,1.76-2.28,2.98-3.14l3.26-5.36c-8.04,0.25-14.33,2.87-17.44,7.98
		c-7.46,12.27,6.19,34.2,30.49,48.99c0.59,0.36,1.18,0.68,1.77,1.02c0.56,0.38,1.12,0.76,1.7,1.12
		c24.14,15.06,49.87,17.4,57.47,5.22C389.94,240.87,389.48,234.12,386.14,226.87z"/>
	<path class="st5" d="M397.46,208.79l-3.46,5.68c-0.25,1.29-0.71,2.49-1.39,3.59c-6.08,9.74-27.49,7.34-47.83-5.36c0,0,0,0-0.01,0
		l0.01-0.01c-0.1-0.06-0.21-0.12-0.31-0.18c-0.1-0.06-0.2-0.13-0.3-0.19l-0.01,0.01c0,0,0,0-0.01,0
		c-20.48-12.46-32.25-30.51-26.29-40.32c0.75-1.24,1.76-2.28,2.98-3.14l3.26-5.36c-8.04,0.25-14.33,2.87-17.44,7.98
		c-7.47,12.27,6.19,34.2,30.49,48.99c0.59,0.36,1.18,0.68,1.77,1.02c0.56,0.38,1.12,0.76,1.7,1.12
		c24.14,15.06,49.87,17.4,57.47,5.22C401.26,222.79,400.79,216.04,397.46,208.79z"/>
	<path class="st5" d="M408.77,190.71l-3.46,5.68c-0.25,1.29-0.71,2.49-1.39,3.59c-6.08,9.74-27.49,7.34-47.83-5.36c0,0,0,0-0.01,0
		l0.01-0.01c-0.1-0.06-0.21-0.12-0.31-0.18c-0.1-0.06-0.2-0.13-0.3-0.19l-0.01,0.01c0,0,0,0-0.01,0
		c-20.48-12.46-32.25-30.51-26.29-40.32c0.75-1.24,1.76-2.28,2.98-3.14l3.26-5.36c-8.04,0.25-14.33,2.87-17.44,7.98
		c-7.47,12.27,6.19,34.2,30.49,48.99c0.59,0.36,1.18,0.68,1.77,1.02c0.56,0.38,1.12,0.76,1.7,1.12
		c24.14,15.06,49.87,17.4,57.47,5.22C412.57,204.71,412.1,197.96,408.77,190.71z"/>
	<path class="st5" d="M420.08,172.63l-3.46,5.68c-0.25,1.29-0.71,2.49-1.39,3.59c-6.08,9.74-27.49,7.34-47.83-5.36c0,0,0,0-0.01,0
		l0.01-0.01c-0.1-0.06-0.21-0.12-0.31-0.18c-0.1-0.06-0.2-0.13-0.3-0.19l-0.01,0.01c0,0,0,0-0.01,0
		c-20.48-12.46-32.25-30.51-26.29-40.32c0.75-1.24,1.76-2.28,2.98-3.14l3.26-5.36c-8.04,0.25-14.33,2.87-17.44,7.98
		c-7.46,12.27,6.19,34.2,30.49,48.99c0.59,0.36,1.18,0.68,1.77,1.02c0.56,0.38,1.12,0.76,1.7,1.12
		c24.14,15.06,49.87,17.4,57.47,5.22C423.88,186.63,423.42,179.88,420.08,172.63z"/>
	<path class="st5" d="M431.4,154.55l-3.46,5.68c-0.25,1.29-0.71,2.49-1.39,3.59c-6.08,9.74-27.49,7.34-47.83-5.36c0,0,0,0-0.01,0
		l0.01-0.01c-0.1-0.06-0.21-0.12-0.31-0.18c-0.1-0.06-0.2-0.13-0.3-0.19l-0.01,0.01c0,0,0,0-0.01,0
		c-20.48-12.46-32.25-30.51-26.29-40.32c0.75-1.24,1.76-2.28,2.98-3.14l3.26-5.36c-8.04,0.25-14.33,2.87-17.44,7.98
		c-7.47,12.27,6.19,34.2,30.49,48.99c0.59,0.36,1.18,0.68,1.77,1.02c0.56,0.38,1.12,0.76,1.7,1.12
		c24.14,15.06,49.87,17.4,57.47,5.22C435.2,168.55,434.73,161.8,431.4,154.55z"/>
	<path class="st5" d="M442.71,136.48l-3.46,5.68c-0.25,1.29-0.71,2.49-1.39,3.59c-6.08,9.74-27.49,7.34-47.83-5.36c0,0,0,0-0.01,0
		l0.01-0.01c-0.1-0.06-0.21-0.12-0.31-0.18c-0.1-0.06-0.2-0.13-0.3-0.19l-0.01,0.01c0,0,0,0-0.01,0
		c-20.48-12.46-32.25-30.51-26.29-40.32c0.75-1.24,1.76-2.28,2.98-3.14l3.26-5.36c-8.04,0.25-14.33,2.87-17.44,7.98
		c-7.46,12.27,6.19,34.2,30.49,48.99c0.59,0.36,1.18,0.68,1.77,1.02c0.56,0.38,1.12,0.76,1.7,1.12
		c24.14,15.06,49.87,17.4,57.47,5.22C446.51,150.47,446.05,143.72,442.71,136.48z"/>
	<path class="st5" d="M454.03,118.4l-3.46,5.68c-0.25,1.29-0.71,2.49-1.39,3.59c-6.08,9.74-27.49,7.34-47.83-5.36c0,0,0,0-0.01,0
		l0.01-0.01c-0.1-0.06-0.21-0.12-0.31-0.18c-0.1-0.06-0.2-0.13-0.3-0.19l-0.01,0.01c0,0,0,0-0.01,0
		c-20.48-12.46-32.25-30.51-26.29-40.32c0.75-1.24,1.76-2.28,2.98-3.14l3.26-5.36c-8.04,0.25-14.33,2.87-17.44,7.98
		c-7.47,12.27,6.19,34.2,30.49,48.99c0.59,0.36,1.18,0.68,1.77,1.02c0.56,0.38,1.12,0.76,1.7,1.12
		c24.14,15.06,49.87,17.4,57.47,5.22C457.82,132.39,457.36,125.64,454.03,118.4z"/>
	<path class="st5" d="M464.63,101.45l-3.46,5.68c-0.25,1.29-0.71,2.49-1.39,3.59c-6.08,9.74-27.49,7.34-47.83-5.36c0,0,0,0-0.01,0
		l0.01-0.01c-0.1-0.06-0.21-0.12-0.31-0.18c-0.1-0.06-0.2-0.13-0.3-0.19l-0.01,0.01c0,0,0,0-0.01,0
		c-20.48-12.46-32.25-30.51-26.29-40.32c0.75-1.24,1.76-2.28,2.98-3.14l3.26-5.36c-8.04,0.25-14.33,2.87-17.44,7.98
		c-7.47,12.27,6.19,34.2,30.49,48.99c0.59,0.36,1.18,0.68,1.77,1.02c0.56,0.38,1.12,0.76,1.7,1.12
		c24.14,15.06,49.87,17.4,57.47,5.22C468.43,115.44,467.96,108.69,464.63,101.45z"/>
	<path class="st5" d="M475.94,83.37l-3.46,5.68c-0.25,1.29-0.71,2.49-1.39,3.59c-6.08,9.74-27.49,7.34-47.83-5.36c0,0,0,0-0.01,0
		l0.01-0.01c-0.1-0.06-0.21-0.12-0.31-0.18c-0.1-0.06-0.2-0.13-0.3-0.19l-0.01,0.01c0,0,0,0-0.01,0
		c-20.48-12.46-32.25-30.51-26.29-40.32c0.75-1.24,1.76-2.28,2.98-3.14l3.26-5.36c-8.04,0.25-14.33,2.87-17.44,7.98
		c-7.46,12.27,6.19,34.2,30.49,48.99c0.59,0.36,1.18,0.68,1.77,1.02c0.56,0.38,1.12,0.76,1.7,1.12
		c24.14,15.06,49.87,17.4,57.47,5.22C479.74,97.36,479.28,90.61,475.94,83.37z"/>
	<path class="st5" d="M487.26,65.29l-3.46,5.68c-0.25,1.29-0.71,2.49-1.39,3.59c-6.08,9.74-27.49,7.34-47.83-5.36c0,0,0,0-0.01,0
		l0.01-0.01c-0.1-0.06-0.21-0.12-0.31-0.18c-0.1-0.06-0.2-0.13-0.3-0.19l-0.01,0.01c0,0,0,0-0.01,0
		c-20.48-12.46-32.25-30.51-26.29-40.32c0.75-1.24,1.76-2.28,2.98-3.14l3.26-5.36c-8.04,0.25-14.33,2.87-17.44,7.98
		c-7.47,12.27,6.19,34.2,30.49,48.99c0.59,0.36,1.18,0.68,1.77,1.02c0.56,0.38,1.12,0.76,1.7,1.12
		c24.14,15.06,49.87,17.4,57.47,5.22C491.06,79.28,490.59,72.53,487.26,65.29z"/>
	<path class="st5" d="M498.57,47.21l-3.46,5.68c-0.25,1.29-0.71,2.49-1.39,3.59c-6.08,9.74-27.49,7.34-47.83-5.36c0,0,0,0-0.01,0
		l0.01-0.01c-0.1-0.06-0.21-0.12-0.31-0.18c-0.1-0.06-0.2-0.13-0.3-0.19l-0.01,0.01c0,0,0,0-0.01,0
		c-20.48-12.46-32.25-30.51-26.29-40.32c0.75-1.24,1.76-2.28,2.98-3.14l3.26-5.36c-8.04,0.25-14.33,2.87-17.44,7.98
		c-7.47,12.27,6.19,34.2,30.49,48.99c0.59,0.36,1.18,0.68,1.77,1.02c0.56,0.38,1.12,0.76,1.7,1.12
		c24.14,15.06,49.87,17.4,57.47,5.22C502.37,61.21,501.91,54.46,498.57,47.21z"/>
	<path class="st5" d="M482,73.69l3.6-5.59c1.05-0.79,1.93-1.73,2.62-2.82c6.1-9.72-5.42-27.93-25.73-40.67c0,0,0,0-0.01,0
		l-0.01,0.01c-0.1-0.07-0.2-0.13-0.3-0.2c-0.1-0.06-0.2-0.12-0.31-0.18l0.01-0.01c0,0,0,0-0.01,0
		c-20.16-12.97-41.54-15.66-47.75-6.01c-0.78,1.22-1.28,2.58-1.52,4.05l-3.4,5.28c-3.29-7.34-3.68-14.14-0.44-19.18
		c7.77-12.08,33.47-9.39,57.39,6c0.58,0.37,1.13,0.76,1.69,1.14c0.58,0.34,1.17,0.68,1.75,1.04c24.1,15.12,37.45,37.24,29.82,49.41
		C496.25,70.99,489.98,73.52,482,73.69z"/>
</g>
</svg>
