<?xml version="1.0" encoding="utf-8"?>
<!-- Generator: Adobe Illustrator 23.0.1, SVG Export Plug-In . SVG Version: 6.00 Build 0)  -->
<svg version="1.1" id="Layer_1" xmlns="http://www.w3.org/2000/svg" xmlns:xlink="http://www.w3.org/1999/xlink" x="0px" y="0px"
	 viewBox="0 0 600 600" style="enable-background:new 0 0 600 600;" xml:space="preserve">
<style type="text/css">
	.st0{fill:#B3B2B3;}
	.st1{fill:#E4E4E3;}
	.st2{fill:#00A99D;}
	.st3{fill:#FF9933;}
	.st4{fill:#CCCCCC;}
</style>
<g>
	<path class="st0" d="M493.11,24.72L385.96,0.76l-0.23-0.68H225.51v-0.21L113.34,24.04v0.32l112.59,574.85l-0.13-200.62
		l174.91,60.54l48.57,128.92l27.23-253.6l-7.44-15.46l9.96-31.51L493.11,24.72z M379.35,105.33l-148.27-0.88L124.69,37.82
		L230.33,17.2h150.56l105.48,21.14L379.35,105.33z"/>
	<polygon class="st1" points="493.46,24.83 382.6,95.47 234.16,95.47 113.9,25.15 112.99,258.97 141,331.32 152.37,379.48 
		135.55,464.42 191.99,567.45 226.5,600 210.85,508.82 224.88,475.45 264.06,415.25 337.43,424.11 395.75,418.16 415.2,425.95 
		449.61,588.15 478.98,505.63 493.46,369.54 493.46,369.35 469.51,319.09 493.46,242.79 	"/>
</g>
<path class="st2" d="M356.77,327.1h-107.1c-30.52,0-55.27-24.74-55.27-55.27v-62.29c0-30.52,24.74-55.27,55.27-55.27h107.1
	c30.52,0,55.27,24.74,55.27,55.27v62.29C412.04,302.35,387.3,327.1,356.77,327.1z"/>
<polygon class="st3" points="526.2,233.23 378.79,245.49 300,248.66 220.04,245.41 73.8,233.23 73.8,220 220.04,232.18 300,235.43 
	378.79,232.26 526.2,220 "/>
<path class="st4" d="M255.43,238.14h-13.7c-10.58,0-19.15-8.57-19.15-19.15v-18.88c0-10.58,8.57-19.15,19.15-19.15h13.7
	c10.58,0,19.15,8.57,19.15,19.15v18.88C274.58,229.57,266.01,238.14,255.43,238.14z"/>
<path class="st4" d="M254.93,302.95h-12.71c-10.85,0-19.65-8.8-19.65-19.65v-17.89c0-10.85,8.8-19.65,19.65-19.65h12.71
	c10.85,0,19.65,8.8,19.65,19.65v17.89C274.58,294.15,265.79,302.95,254.93,302.95z"/>
<path class="st4" d="M361.77,238.14h-12.88c-10.81,0-19.56-8.76-19.56-19.56v-18.06c0-10.81,8.76-19.56,19.56-19.56h12.88
	c10.81,0,19.56,8.76,19.56,19.56v18.06C381.33,229.38,372.57,238.14,361.77,238.14z"/>
<path class="st4" d="M361.93,302.95h-13.2c-10.72,0-19.4-8.69-19.4-19.4v-18.38c0-10.72,8.69-19.4,19.4-19.4h13.2
	c10.72,0,19.4,8.69,19.4,19.4v18.38C381.33,294.26,372.64,302.95,361.93,302.95z"/>
</svg>
