<?xml version="1.0" encoding="utf-8"?>
<!-- Generator: Adobe Illustrator 23.0.1, SVG Export Plug-In . SVG Version: 6.00 Build 0)  -->
<svg version="1.1" id="Layer_1" xmlns="http://www.w3.org/2000/svg" xmlns:xlink="http://www.w3.org/1999/xlink" x="0px" y="0px"
	 viewBox="0 0 600 600" style="enable-background:new 0 0 600 600;" xml:space="preserve">
<style type="text/css">
	.st0{fill:#666666;}
	.st1{fill:#333333;}
	.st2{fill:#FFFFFF;}
	.st3{fill:#B3B2B3;}
	.st4{fill:#E4E4E3;}
</style>
<polygon class="st0" points="495.6,25 384.8,95.6 236.4,95.6 116.2,25.3 115.2,259 143.2,331.4 154.6,379.5 137.8,464.5 
	194.2,567.5 228.7,600 213.1,508.8 227.1,475.5 266.3,415.3 339.6,424.1 397.9,418.2 417.4,426 451.8,588.2 481.2,505.6 
	495.6,369.6 495.6,369.4 471.7,319.1 495.6,242.9 "/>
<path d="M495.3,24.8l-107.1-24l-0.2-0.7H227.7V0L115.6,24.2v0.3l112.6,574.7L228,398.6l174.9,60.5L451.5,588l27.2-253.5l-7.4-15.5
	l10-31.5L495.3,24.8z M381.6,105.4l-148.2-0.9L126.9,37.9l105.6-20.6h150.5l105.5,21.1L381.6,105.4z"/>
<polygon class="st0" points="495.1,25 384.3,95.6 235.9,95.6 115.7,25.3 114.7,259 142.7,331.4 154.1,379.5 137.3,464.5 
	193.7,567.5 228.2,600 212.6,508.8 226.6,475.5 265.8,415.3 339.1,424.1 397.4,418.2 416.9,426 451.3,588.2 480.7,505.6 
	495.1,369.6 495.1,369.4 471.2,319.1 495.1,242.9 "/>
<ellipse class="st1" cx="119.4" cy="210.3" rx="25.6" ry="33.3"/>
<ellipse class="st1" cx="156.7" cy="382.5" rx="45.9" ry="29.5"/>
<ellipse transform="matrix(0.7471 -0.6648 0.6648 0.7471 -128.882 226.5667)" class="st1" cx="233.3" cy="282.6" rx="7.3" ry="11.3"/>
<g>
	<polygon class="st2" points="600.8,-0.8 -0.8,-0.8 600.8,600.8 	"/>
	<g>
		<path class="st3" d="M466.4,444.4L478.2,335l-7.4-15.5l10-31.5l14.1-262.7l-107.1-24l-0.2-0.7H227.2V0.5L115.1,24.7V25l16.6,84.6
			L466.4,444.4z M232,17.8h150.5L488,38.9l-107,67L232.8,105L126.4,38.4L232,17.8z"/>
	</g>
	<polygon class="st4" points="485.3,462.7 495.1,370.1 495.1,369.9 471.2,319.6 495.1,243.4 495.1,25.5 384.3,96.1 235.9,96.1 
		115.7,25.8 115.4,92.8 	"/>
</g>
<g>
	<polygon class="st2" points="235.9,95.7 384.3,95.7 477.5,36.3 382.6,17.3 232.1,17.3 134.4,36.4 	"/>
	<path class="st2" d="M-0.8-1.1v601.5h601.5V-1.1H-0.8z M495.1,243l-24,76.3l24,50.3v0.2l-14.5,136.1l-29.4,82.5l-0.2-1.1L451,588
		l-48.6-128.9l-121-41.9l-15.6-1.9l-38.2,58.7l0.1,122.7l0.6,3.3l-34.5-32.5l-56.4-103l16.8-84.9l-11.4-48.1l-28-72.3l0.9-231.8
		l-0.6-2.8v-0.3L227.2,0v0.2h160.2l0.2,0.7l107.1,24l0,0.5l0.4-0.2V243z"/>
</g>
</svg>
