<?xml version="1.0" encoding="utf-8"?>
<!-- Generator: Adobe Illustrator 23.0.1, SVG Export Plug-In . SVG Version: 6.00 Build 0)  -->
<svg version="1.1" id="Layer_1" xmlns="http://www.w3.org/2000/svg" xmlns:xlink="http://www.w3.org/1999/xlink" x="0px" y="0px"
	 viewBox="0 0 600 600" style="enable-background:new 0 0 600 600;" xml:space="preserve">
<style type="text/css">
	.st0{fill:#B3B2B3;}
	.st1{fill:#E4E4E3;}
	.st2{fill:#00A99D;}
</style>
<g>
	<path class="st0" d="M493.11,24.72L385.96,0.76l-0.23-0.68H225.51v-0.21L113.34,24.04v0.32l112.59,574.85l-0.13-200.62
		l174.91,60.54l48.57,128.92l27.23-253.6l-7.44-15.46l9.96-31.51L493.11,24.72z M379.35,105.33l-148.27-0.88L124.69,37.82
		L230.33,17.2h150.56l105.48,21.14L379.35,105.33z"/>
	<polygon class="st1" points="493.46,24.83 382.6,95.47 234.16,95.47 113.9,25.15 112.99,258.97 141,331.32 152.37,379.48 
		135.55,464.42 191.99,567.45 226.5,600 210.85,508.82 224.88,475.45 264.06,415.25 337.43,424.11 395.75,418.16 415.2,425.95 
		449.61,588.15 478.98,505.63 493.46,369.54 493.46,369.35 469.51,319.09 493.46,242.79 	"/>
</g>
<rect x="454" class="st2" width="65" height="213"/>
<rect x="454" transform="matrix(-1.836970e-16 1 -1 -1.836970e-16 593 -380)" class="st2" width="65" height="213"/>
</svg>
